# xmcd
#
# Track frame offsets:
#	150
#	13326
#	25041
#	39052
#	54498
#	71552
#	91852
#	109517
#	127465
#	144308
#	160848
#	183724
#	202635
#
# Disc length: 2978 seconds
#
# Revision: 2183882025
# Processed by: cddbd v1.5.2PL0 Copyright (c) Steve Scherf et al.
# Submitted via: EZCDAudioConverter 8.0.7.1
#
DISCID=a70ba00d
DTITLE=Cody Johnson - Cowboy Like Me
DYEAR=2014
DGENRE=Country
TTITLE0=Dance Her Home
TTITLE1=Me And My Kind
TTITLE2=Lucky
TTITLE3=Proud
TTITLE4=Baby's Blue
TTITLE5=Bottle It Up
TTITLE6=Cowboy Like Me
TTITLE7=Hurtin'
TTITLE8=(I Wouldn't Go There) If I Were You
TTITLE9=Holes
TTITLE10=Give A Cowboy A Kiss
TTITLE11=Never Go Home Again
TTITLE12=Bonus Track
EXTD=
EXTT0=
EXTT1=
EXTT2=
EXTT3=
EXTT4=
EXTT5=
EXTT6=
EXTT7=
EXTT8=
EXTT9=
EXTT10=
EXTT11=
EXTT12=
PLAYORDER=
